<svg width="205" height="55" viewBox="0 0 205 55" fill="none" xmlns="http://www.w3.org/2000/svg">
<g clip-path="url(#clip0)">
<path fill-rule="evenodd" clip-rule="evenodd" d="M52.6087 32.1686L40.4728 48.9077L9.56999 53.8123L2.3913 8.3966L47.7137 1.20355L52.6087 32.1686Z" fill="#FFCC00"/>
<path fill-rule="evenodd" clip-rule="evenodd" d="M38.1872 34.4573L52.6092 32.1688L40.4733 48.908L38.1872 34.4573Z" fill="#FF9500"/>
<path fill-rule="evenodd" clip-rule="evenodd" d="M28.4388 31.9258C28.5416 32.5763 28.0969 33.1884 27.444 33.2936C25.8801 33.5447 24.8973 32.7221 24.2445 32.1745C23.6395 31.6747 23.4099 31.5145 22.9508 31.5863C22.494 31.6604 22.3195 31.8804 21.901 32.5499C21.449 33.2673 20.7675 34.353 19.2012 34.6017C19.0027 34.6328 18.8162 34.6471 18.6345 34.6471C17.391 34.6471 16.5708 33.9608 16.0016 33.4826C15.3966 32.9756 15.1647 32.8178 14.7079 32.8919C14.0503 32.9732 13.4453 32.5499 13.3425 31.8971C13.2397 31.2443 13.6845 30.6321 14.3373 30.5293C15.906 30.2902 16.884 31.1056 17.5345 31.6508C18.1395 32.1554 18.381 32.3156 18.8258 32.2391C19.2825 32.1673 19.4547 31.9449 19.8732 31.2778C20.3251 30.5604 21.0066 29.4747 22.5753 29.2236C24.1416 28.9773 25.1245 29.7952 25.7773 30.3404C26.3823 30.8449 26.619 31.0099 27.071 30.931C27.7262 30.8378 28.336 31.2754 28.4388 31.9258ZM38.4297 19.4863C37.6693 19.0415 37.1743 18.7402 36.146 18.9123C35.1225 19.0726 34.7375 19.5078 34.1516 20.163C33.4653 20.933 32.6116 21.8919 30.7464 22.1908C28.8836 22.4802 27.7764 21.8345 26.8869 21.3156C26.1264 20.8708 25.6219 20.5743 24.6056 20.7417C23.5869 20.9043 23.2019 21.3371 22.6184 21.9947C21.9321 22.7647 21.0808 23.7213 19.2179 24.0178C18.8927 24.0704 18.5914 24.0943 18.3116 24.0943C16.9749 24.0943 16.0925 23.5754 15.356 23.1449C14.5979 22.7026 14.0982 22.4156 13.0795 22.571C12.4314 22.6786 11.8145 22.2267 11.7116 21.5763C11.6064 20.9234 12.0536 20.3113 12.704 20.2084C14.5812 19.9191 15.6764 20.5623 16.5636 21.0813C17.324 21.526 17.8334 21.8226 18.8425 21.6552C19.8612 21.4949 20.2462 21.0597 20.8297 20.4045C21.516 19.6321 22.3673 18.6756 24.2301 18.3791C26.0953 18.0873 27.2025 18.7306 28.0921 19.2519C28.8525 19.6943 29.3523 19.9884 30.3734 19.8258C31.3945 19.6656 31.7795 19.2304 32.3677 18.5728C33.0516 17.8028 33.9053 16.8439 35.7706 16.5473C37.6334 16.2413 38.7453 16.8965 39.6349 17.4202C40.3953 17.8649 40.8999 18.1639 41.921 17.9941C42.5762 17.896 43.186 18.336 43.2888 18.9889C43.3916 19.6393 42.9469 20.2515 42.294 20.3567C40.4288 20.6484 39.3216 20.0076 38.4297 19.4863ZM42.581 43.966L41.2012 45.8647L39.5536 35.4506L49.9486 33.8006L42.581 43.966ZM3.75817 9.38777L46.7203 2.57256L51.2399 31.1749L38.0016 33.2745C37.3488 33.3797 36.904 33.9919 37.0069 34.6447L39.104 47.9165L10.5638 52.4432L3.75817 9.38777ZM48.894 1.01582C48.8462 0.702557 48.674 0.422775 48.4158 0.236253C48.1623 0.0497311 47.8419 -0.0315732 47.5262 0.0210355L2.20382 7.21408C1.55099 7.3193 1.10621 7.93147 1.21143 8.5819L8.39012 53.9976C8.43795 54.3108 8.61012 54.593 8.86599 54.7795C9.07165 54.9278 9.31795 55.0067 9.56904 55.0067C9.63121 55.0067 9.69577 55.0019 9.75795 54.9923L40.6584 50.0902C40.7445 50.0758 40.8138 50.0328 40.8927 50.0041C40.9429 49.9826 40.9956 49.973 41.0458 49.9467C41.1964 49.863 41.3375 49.753 41.4403 49.6119L53.5762 32.8728C53.7006 32.7006 53.7556 32.4973 53.7771 32.2893C53.7843 32.2391 53.7843 32.1913 53.7843 32.1386C53.7819 32.0836 53.7962 32.0334 53.789 31.9808L48.894 1.01582Z" fill="black"/>
<path opacity="0.12" fill-rule="evenodd" clip-rule="evenodd" d="M39.5335 43.065L8.63786 47.9672C8.3246 48.0174 8.04243 48.1896 7.8583 48.4454C7.67178 48.7013 7.59525 49.0217 7.64308 49.335L8.38439 53.9981C8.47765 54.5863 8.98699 55.0072 9.5633 55.0072C9.62547 55.0072 9.69004 55.0024 9.75221 54.9928L40.6479 50.0907C40.9611 50.0404 41.2433 49.8707 41.4274 49.6124C41.6139 49.3565 41.6905 49.0361 41.6426 48.7228L40.9013 44.0598C40.7985 43.407 40.1648 42.9622 39.5335 43.065Z" fill="black"/>
</g>
<path d="M71.1172 18.9375L75.5 31.3125L79.8594 18.9375H84.4766V36H80.9492V31.3359L81.3008 23.2852L76.6953 36H74.2812L69.6875 23.2969L70.0391 31.3359V36H66.5234V18.9375H71.1172ZM92.0586 31.207L94.4023 23.3203H98.0352L92.9375 37.9688L92.6562 38.6367C91.8984 40.293 90.6484 41.1211 88.9062 41.1211C88.4141 41.1211 87.9141 41.0469 87.4062 40.8984V38.332L87.9219 38.3438C88.5625 38.3438 89.0391 38.2461 89.3516 38.0508C89.6719 37.8555 89.9219 37.5312 90.1016 37.0781L90.5 36.0352L86.0586 23.3203H89.7031L92.0586 31.207ZM119.445 36H115.93L109.086 24.7734V36H105.57V18.9375H109.086L115.941 30.1875V18.9375H119.445V36ZM121.766 29.543C121.766 28.2852 122.008 27.1641 122.492 26.1797C122.977 25.1953 123.672 24.4336 124.578 23.8945C125.492 23.3555 126.551 23.0859 127.754 23.0859C129.465 23.0859 130.859 23.6094 131.938 24.6562C133.023 25.7031 133.629 27.125 133.754 28.9219L133.777 29.7891C133.777 31.7344 133.234 33.2969 132.148 34.4766C131.062 35.6484 129.605 36.2344 127.777 36.2344C125.949 36.2344 124.488 35.6484 123.395 34.4766C122.309 33.3047 121.766 31.7109 121.766 29.6953V29.543ZM125.152 29.7891C125.152 30.9922 125.379 31.9141 125.832 32.5547C126.285 33.1875 126.934 33.5039 127.777 33.5039C128.598 33.5039 129.238 33.1914 129.699 32.5664C130.16 31.9336 130.391 30.9258 130.391 29.543C130.391 28.3633 130.16 27.4492 129.699 26.8008C129.238 26.1523 128.59 25.8281 127.754 25.8281C126.926 25.8281 126.285 26.1523 125.832 26.8008C125.379 27.4414 125.152 28.4375 125.152 29.7891ZM139.918 20.2031V23.3203H142.086V25.8047H139.918V32.1328C139.918 32.6016 140.008 32.9375 140.188 33.1406C140.367 33.3438 140.711 33.4453 141.219 33.4453C141.594 33.4453 141.926 33.418 142.215 33.3633V35.9297C141.551 36.1328 140.867 36.2344 140.164 36.2344C137.789 36.2344 136.578 35.0352 136.531 32.6367V25.8047H134.68V23.3203H136.531V20.2031H139.918ZM149.809 36.2344C147.949 36.2344 146.434 35.6641 145.262 34.5234C144.098 33.3828 143.516 31.8633 143.516 29.9648V29.6367C143.516 28.3633 143.762 27.2266 144.254 26.2266C144.746 25.2188 145.441 24.4453 146.34 23.9062C147.246 23.3594 148.277 23.0859 149.434 23.0859C151.168 23.0859 152.531 23.6328 153.523 24.7266C154.523 25.8203 155.023 27.3711 155.023 29.3789V30.7617H146.949C147.059 31.5898 147.387 32.2539 147.934 32.7539C148.488 33.2539 149.188 33.5039 150.031 33.5039C151.336 33.5039 152.355 33.0312 153.09 32.0859L154.754 33.9492C154.246 34.668 153.559 35.2305 152.691 35.6367C151.824 36.0352 150.863 36.2344 149.809 36.2344ZM149.422 25.8281C148.75 25.8281 148.203 26.0547 147.781 26.5078C147.367 26.9609 147.102 27.6094 146.984 28.4531H151.695V28.1836C151.68 27.4336 151.477 26.8555 151.086 26.4492C150.695 26.0352 150.141 25.8281 149.422 25.8281ZM172.789 32.4844H166.625L165.453 36H161.715L168.066 18.9375H171.324L177.711 36H173.973L172.789 32.4844ZM167.574 29.6367H171.84L169.695 23.25L167.574 29.6367ZM189.934 29.7773C189.934 31.7305 189.488 33.2969 188.598 34.4766C187.715 35.6484 186.52 36.2344 185.012 36.2344C183.73 36.2344 182.695 35.7891 181.906 34.8984V40.875H178.52V23.3203H181.66L181.777 24.5625C182.598 23.5781 183.668 23.0859 184.988 23.0859C186.551 23.0859 187.766 23.6641 188.633 24.8203C189.5 25.9766 189.934 27.5703 189.934 29.6016V29.7773ZM186.547 29.5312C186.547 28.3516 186.336 27.4414 185.914 26.8008C185.5 26.1602 184.895 25.8398 184.098 25.8398C183.035 25.8398 182.305 26.2461 181.906 27.0586V32.25C182.32 33.0859 183.059 33.5039 184.121 33.5039C185.738 33.5039 186.547 32.1797 186.547 29.5312ZM203.457 29.7773C203.457 31.7305 203.012 33.2969 202.121 34.4766C201.238 35.6484 200.043 36.2344 198.535 36.2344C197.254 36.2344 196.219 35.7891 195.43 34.8984V40.875H192.043V23.3203H195.184L195.301 24.5625C196.121 23.5781 197.191 23.0859 198.512 23.0859C200.074 23.0859 201.289 23.6641 202.156 24.8203C203.023 25.9766 203.457 27.5703 203.457 29.6016V29.7773ZM200.07 29.5312C200.07 28.3516 199.859 27.4414 199.438 26.8008C199.023 26.1602 198.418 25.8398 197.621 25.8398C196.559 25.8398 195.828 26.2461 195.43 27.0586V32.25C195.844 33.0859 196.582 33.5039 197.645 33.5039C199.262 33.5039 200.07 32.1797 200.07 29.5312Z" fill="black"/>
<defs>
<clipPath id="clip0">
<rect width="55" height="55" fill="white"/>
</clipPath>
</defs>
</svg>
