<svg height="512pt" viewBox="0 -21 512.02898 512" width="512pt" xmlns="http://www.w3.org/2000/svg"><path d="m490.65625 31.417969c-.148438-2.878907-1.472656-5.570313-3.648438-7.445313-2.175781-1.898437-4.992187-2.921875-7.890624-2.582031l-384 32c-5.738282.46875-10.070313 5.441406-9.773438 11.199219l21.335938 394.667968c.167968 2.941407 1.511718 5.675782 3.753906 7.550782 1.960937 1.644531 4.394531 2.539062 6.910156 2.539062.40625 0 .789062-.019531 1.175781-.0625l384-42.667968c5.628907-.617188 9.789063-5.546876 9.472657-11.199219zm0 0" fill="#ffa000"/><path d="m467.382812 89.847656c-1.644531-2.324218-4.140624-3.902344-6.957031-4.371094l-384-64c-5.757812-1.046874-11.242187 2.902344-12.242187 8.660157l-64 362.667969c-.492188 2.792968.148437 5.695312 1.789062 8 1.644532 2.304687 4.140625 3.902343 6.957032 4.371093l384 64c.597656.128907 1.171874.171875 1.75.171875 5.074218 0 9.578124-3.648437 10.496093-8.808594l64-362.667968c.511719-2.796875-.152343-5.695313-1.792969-8.023438zm0 0" fill="#ffc107"/><path d="m394.679688 469.347656c-.578126 0-1.175782-.042968-1.773438-.148437l-384-64c-2.816406-.46875-5.3125-2.046875-6.953125-4.375-1.644531-2.324219-2.28125-5.203125-1.792969-8l64-362.664063c1.003906-5.761718 6.484375-9.730468 12.246094-8.664062l384 64c2.816406.46875 5.3125 2.050781 6.953125 4.375 1.644531 2.324218 2.285156 5.203125 1.792969 8l-64 362.667968c-.875 5.160157-5.375 8.808594-10.472656 8.808594zm-371.628907-83.414062 362.964844 60.480468 60.289063-341.652343-362.964844-60.480469zm0 0"/><path d="m400.203125 437.921875c-5.355469 0-9.984375-4.03125-10.601563-9.492187-.640624-5.84375 3.5625-11.113282 9.429688-11.773438l91.09375-10.136719-20.160156-362.964843-259.285156 21.613281c-5.933594.679687-11.03125-3.882813-11.519532-9.75-.492187-5.867188 3.882813-11.03125 9.746094-11.5l270.230469-22.527344c2.902343-.339844 5.71875.683594 7.894531 2.582031 2.175781 1.898438 3.496094 4.585938 3.648438 7.464844l21.332031 384c.320312 5.65625-3.839844 10.582031-9.472657 11.199219l-101.121093 11.246093c-.425781.019532-.808594.039063-1.214844.039063zm0 0"/><path d="m117.34375 469.347656c-2.515625 0-4.949219-.894531-6.890625-2.539062-2.238281-1.898438-3.605469-4.609375-3.773437-7.550782l-2.519532-46.65625c-.320312-5.867187 4.203125-10.902343 10.089844-11.222656 5.65625-.425781 10.902344 4.203125 11.222656 10.089844l1.898438 35.371094 155.179687-17.257813c5.996094-.660156 11.136719 3.585938 11.777344 9.429688.636719 5.84375-3.5625 11.113281-9.429687 11.777343l-166.402344 18.496094c-.363282.042969-.746094.0625-1.152344.0625zm0 0"/><path d="m266.679688 213.347656c-29.398438 0-53.335938-23.9375-53.335938-53.332031v-42.667969c0-5.886718 4.78125-10.667968 10.667969-10.667968s10.667969 4.78125 10.667969 10.667968v42.667969c0 17.640625 14.355468 32 32 32 17.640624 0 32-14.359375 32-32v-106.667969c0-17.640625-14.359376-32-32-32-17.644532 0-32 14.359375-32 32 0 5.886719-4.78125 10.667969-10.667969 10.667969s-10.667969-4.78125-10.667969-10.667969c0-29.398437 23.9375-53.332031 53.335938-53.332031 29.394531 0 53.332031 23.933594 53.332031 53.332031v106.667969c0 29.394531-23.9375 53.332031-53.332031 53.332031zm0 0"/></svg>