<svg width="44" height="44" viewBox="0 0 44 44" fill="none" xmlns="http://www.w3.org/2000/svg">
<g clip-path="url(#clip0)">
<path d="M42.1634 4.50566C42.1506 4.25827 42.0368 4.02699 41.8499 3.86587C41.6629 3.70273 41.4209 3.61478 41.1718 3.64399L8.17367 6.39383C7.68057 6.43411 7.30831 6.86142 7.33382 7.35621L9.16727 41.2711C9.1817 41.5238 9.29718 41.7588 9.48985 41.9199C9.65836 42.0612 9.86749 42.1381 10.0837 42.1381C10.1186 42.1381 10.1515 42.1364 10.1847 42.1327L43.1828 38.4662C43.6665 38.4131 44.024 37.9895 43.9968 37.5038L42.1634 4.50566Z" fill="#FFA000"/>
<path d="M40.1635 9.52668C40.0221 9.32695 39.8076 9.19134 39.5656 9.15106L6.56749 3.65137C6.0727 3.56141 5.60142 3.90078 5.51548 4.39556L0.0157937 35.5606C-0.0265013 35.8006 0.0285493 36.05 0.169533 36.248C0.310852 36.4461 0.525348 36.5834 0.767369 36.6237L33.7655 42.1233C33.8169 42.1344 33.8662 42.1381 33.9159 42.1381C34.3519 42.1381 34.739 41.8246 34.8178 41.3812L40.3175 10.2162C40.3615 9.97581 40.3044 9.72674 40.1635 9.52668V9.52668Z" fill="#FFC107"/>
<path d="M33.9159 42.1381C33.8662 42.1381 33.8148 42.1344 33.7635 42.1254L0.765338 36.6257C0.523317 36.5854 0.308821 36.4498 0.167838 36.2497C0.026519 36.05 -0.028196 35.8026 0.0137633 35.5623L5.51345 4.39757C5.59972 3.90245 6.07067 3.56141 6.56579 3.65305L39.5639 9.15274C39.8059 9.19302 40.0204 9.32897 40.1614 9.52869C40.3027 9.72842 40.3578 9.97581 40.3155 10.2162L34.8158 41.3812C34.7406 41.8246 34.3539 42.1381 33.9159 42.1381V42.1381ZM1.98082 34.9701L33.1713 40.1674L38.3521 10.8083L7.16161 5.61104L1.98082 34.9701Z" fill="black"/>
<path d="M34.3905 39.4376C33.9303 39.4376 33.5325 39.0912 33.4795 38.6219C33.4244 38.1197 33.7856 37.6669 34.2898 37.6102L42.1177 36.7391L40.3853 5.5486L18.1042 7.40589C17.5943 7.46429 17.1563 7.07223 17.1143 6.56804C17.072 6.06386 17.448 5.6201 17.9518 5.57982L41.1735 3.64399C41.4229 3.61478 41.6649 3.70273 41.8518 3.86587C42.0388 4.029 42.1523 4.25995 42.1654 4.50734L43.9985 37.5055C44.026 37.9915 43.6685 38.4148 43.1845 38.4678L34.4949 39.4342C34.4583 39.4359 34.4254 39.4376 34.3905 39.4376V39.4376Z" fill="black"/>
<path d="M10.0837 42.1381C9.86751 42.1381 9.65838 42.0612 9.49155 41.9199C9.29921 41.7568 9.18172 41.5238 9.16729 41.2711L8.95078 37.2618C8.92325 36.7576 9.31196 36.3249 9.81783 36.2974C10.3039 36.2608 10.7547 36.6586 10.7822 37.1644L10.9454 40.204L24.2804 38.7209C24.7956 38.6642 25.2374 39.0291 25.2924 39.5313C25.3471 40.0334 24.9863 40.4863 24.4821 40.5433L10.1827 42.1327C10.1515 42.1364 10.1186 42.1381 10.0837 42.1381V42.1381Z" fill="black"/>
<path d="M22.9165 20.1394C20.3902 20.1394 18.3332 18.0823 18.3332 15.5564V11.8898C18.3332 11.384 18.7441 10.9731 19.2499 10.9731C19.7558 10.9731 20.1666 11.384 20.1666 11.8898V15.5564C20.1666 17.0723 21.4002 18.3062 22.9165 18.3062C24.4324 18.3062 25.6663 17.0723 25.6663 15.5564V6.39014C25.6663 4.87423 24.4324 3.64029 22.9165 3.64029C21.4002 3.64029 20.1666 4.87423 20.1666 6.39014C20.1666 6.896 19.7558 7.30686 19.2499 7.30686C18.7441 7.30686 18.3332 6.896 18.3332 6.39014C18.3332 3.86385 20.3902 1.80717 22.9165 1.80717C25.4424 1.80717 27.4995 3.86385 27.4995 6.39014V15.5564C27.4995 18.0823 25.4424 20.1394 22.9165 20.1394V20.1394Z" fill="black"/>
</g>
<defs>
<clipPath id="clip0">
<rect width="44" height="44" fill="white"/>
</clipPath>
</defs>
</svg>
